<?xml version="1.0" encoding="UTF-8"?>
<svg xmlns="http://www.w3.org/2000/svg" xmlns:xlink="http://www.w3.org/1999/xlink" viewBox="0 0 64 64" version="1.1" width="64px" height="64px">
<g id="surface1">
<path style=" fill:#FAEFDE;" d="M 16 5 L 49 5 C 50.105469 5 51 5.894531 51 7 L 51 51 C 51 52.105469 50.105469 53 49 53 L 16 53 C 14.894531 53 14 52.105469 14 51 L 14 7 C 14 5.894531 14.894531 5 16 5 Z "/>
<path style=" fill:#CDA1A7;" d="M 12 5 L 19 5 L 19 53 L 9 53 L 9 8 C 9 6.34375 10.34375 5 12 5 Z "/>
<path style=" fill:#EFD8BE;" d="M 11 53 L 47 53 C 48.105469 53 49 53.894531 49 55 L 49 57 C 49 58.105469 48.105469 59 47 59 L 11 59 C 9.894531 59 9 58.105469 9 57 L 9 55 C 9 53.894531 9.894531 53 11 53 Z "/>
<path style=" fill:#F9E3AE;" d="M 51 31 L 55 31 L 55 43 L 51 43 Z "/>
<path style=" fill:#97E0BB;" d="M 51 21 L 55 21 L 55 33 L 51 33 Z "/>
<path style=" fill:#ED7899;" d="M 51 11 L 55 11 L 55 23 L 51 23 Z "/>
<path style=" fill:#FFF7F0;" d="M 35 19 C 37.210938 19 39 20.789063 39 23 L 39 25 C 39 27.210938 37.210938 29 35 29 C 32.789063 29 31 27.210938 31 25 L 31 23 C 31 20.789063 32.789063 19 35 19 Z "/>
<path style=" fill:#F75F83;" d="M 41 42 L 37 42 C 36.449219 42 36 42.449219 36 43 C 36 43.550781 36.449219 44 37 44 L 41 44 C 41.550781 44 42 43.550781 42 43 C 42 42.449219 41.550781 42 41 42 Z "/>
<path style=" fill:#F75F83;" d="M 33 42 L 29 42 C 28.449219 42 28 42.449219 28 43 C 28 43.550781 28.449219 44 29 44 L 33 44 C 33.550781 44 34 43.550781 34 43 C 34 42.449219 33.550781 42 33 42 Z "/>
<path style=" fill:#F75F83;" d="M 39 40 C 39.550781 40 40 39.550781 40 39 C 40 38.449219 39.550781 38 39 38 L 31 38 C 30.449219 38 30 38.449219 30 39 C 30 39.550781 30.449219 40 31 40 Z "/>
<path style=" fill:#8D6C9F;" d="M 19 8 C 18.449219 8 18 8.449219 18 9 L 18 13 C 18 13.550781 18.449219 14 19 14 C 19.550781 14 20 13.550781 20 13 L 20 9 C 20 8.449219 19.550781 8 19 8 Z "/>
<path style=" fill:#8D6C9F;" d="M 15 8 L 13 8 C 12.449219 8 12 8.449219 12 9 C 12 9.550781 12.449219 10 13 10 L 15 10 C 15.550781 10 16 9.550781 16 9 C 16 8.449219 15.550781 8 15 8 Z "/>
<path style=" fill:#8D6C9F;" d="M 15 13 L 13 13 C 12.449219 13 12 13.449219 12 14 C 12 14.550781 12.449219 15 13 15 L 15 15 C 15.550781 15 16 14.550781 16 14 C 16 13.449219 15.550781 13 15 13 Z "/>
<path style=" fill:#8D6C9F;" d="M 15 18 L 13 18 C 12.449219 18 12 18.449219 12 19 C 12 19.550781 12.449219 20 13 20 L 15 20 C 15.550781 20 16 19.550781 16 19 C 16 18.449219 15.550781 18 15 18 Z "/>
<path style=" fill:#8D6C9F;" d="M 15 23 L 13 23 C 12.449219 23 12 23.449219 12 24 C 12 24.550781 12.449219 25 13 25 L 15 25 C 15.550781 25 16 24.550781 16 24 C 16 23.449219 15.550781 23 15 23 Z "/>
<path style=" fill:#8D6C9F;" d="M 15 28 L 13 28 C 12.449219 28 12 28.449219 12 29 C 12 29.550781 12.449219 30 13 30 L 15 30 C 15.550781 30 16 29.550781 16 29 C 16 28.449219 15.550781 28 15 28 Z "/>
<path style=" fill:#8D6C9F;" d="M 15 33 L 13 33 C 12.449219 33 12 33.449219 12 34 C 12 34.550781 12.449219 35 13 35 L 15 35 C 15.550781 35 16 34.550781 16 34 C 16 33.449219 15.550781 33 15 33 Z "/>
<path style=" fill:#8D6C9F;" d="M 15 38 L 13 38 C 12.449219 38 12 38.449219 12 39 C 12 39.550781 12.449219 40 13 40 L 15 40 C 15.550781 40 16 39.550781 16 39 C 16 38.449219 15.550781 38 15 38 Z "/>
<path style=" fill:#8D6C9F;" d="M 15 43 L 13 43 C 12.449219 43 12 43.449219 12 44 C 12 44.550781 12.449219 45 13 45 L 15 45 C 15.550781 45 16 44.550781 16 44 C 16 43.449219 15.550781 43 15 43 Z "/>
<path style=" fill:#8D6C9F;" d="M 15 48 L 13 48 C 12.449219 48 12 48.449219 12 49 C 12 49.550781 12.449219 50 13 50 L 15 50 C 15.550781 50 16 49.550781 16 49 C 16 48.449219 15.550781 48 15 48 Z "/>
<path style=" fill:#8D6C9F;" d="M 39.238281 27.621094 C 39.730469 26.835938 39.996094 25.925781 40 25 L 40 23 C 40 20.238281 37.761719 18 35 18 C 32.238281 18 30 20.238281 30 23 L 30 25 C 30.003906 25.925781 30.269531 26.835938 30.761719 27.621094 C 28.070313 28.65625 26.042969 30.917969 25.300781 33.699219 C 25.183594 34.054688 25.273438 34.441406 25.53125 34.710938 C 25.789063 34.976563 26.175781 35.078125 26.53125 34.972656 C 26.886719 34.867188 27.15625 34.574219 27.230469 34.210938 C 27.890625 31.734375 29.851563 29.816406 32.339844 29.210938 C 33.957031 30.25 36.03125 30.25 37.648438 29.210938 C 40.144531 29.8125 42.109375 31.730469 42.769531 34.210938 C 42.9375 34.710938 43.464844 34.996094 43.976563 34.863281 C 44.484375 34.726563 44.804688 34.21875 44.699219 33.699219 C 43.957031 30.917969 41.929688 28.65625 39.238281 27.621094 Z M 31.878906 23 C 31.972656 21.34375 33.34375 20.046875 35.003906 20.046875 C 36.664063 20.046875 38.035156 21.34375 38.128906 23 L 38.128906 25 C 38.035156 26.65625 36.664063 27.953125 35.003906 27.953125 C 33.34375 27.953125 31.972656 26.65625 31.878906 25 Z "/>
<path style=" fill:#8D6C9F;" d="M 56 12 C 56 10.894531 55.105469 10 54 10 L 52 10 L 52 7 C 52 5.34375 50.65625 4 49 4 L 12 4 C 9.789063 4 8 5.789063 8 8 L 8 56 C 8 58.210938 9.789063 60 12 60 L 47 60 C 48.65625 60 50 58.65625 50 57 L 50 53.820313 C 51.195313 53.398438 51.996094 52.269531 52 51 L 52 44.621094 L 54.890625 43.171875 C 55.570313 42.832031 56 42.140625 56 41.378906 Z M 52 24.621094 L 54 23.621094 L 54 31.378906 L 52 32.378906 Z M 54 12 L 54 21.378906 L 52 22.378906 L 52 12 Z M 47 58 L 12 58 C 10.894531 58 10 57.105469 10 56 C 10.117188 54.945313 10.945313 54.117188 12 54 L 48 54 L 48 57 C 48 57.550781 47.550781 58 47 58 Z M 50 51 C 50 51.550781 49.550781 52 49 52 L 20 52 L 20 17 C 20 16.449219 19.550781 16 19 16 C 18.449219 16 18 16.449219 18 17 L 18 52 L 12 52 C 11.289063 52.027344 10.597656 52.242188 10 52.628906 L 10 8 C 10 6.894531 10.894531 6 12 6 L 49 6 C 49.550781 6 50 6.449219 50 7 Z M 52 42.378906 L 52 34.621094 L 54 33.621094 L 54 41.378906 Z "/>
</g>
</svg>
